<svg width="36" height="38" viewBox="0 0 36 38" fill="none" xmlns="http://www.w3.org/2000/svg">
<rect x="0.5" y="0.5" width="35" height="35" rx="17.5" fill="#2B2B2B"/>
<rect x="0.5" y="0.5" width="35" height="35" rx="17.5" stroke="#2B2B2B"/>
<path fill-rule="evenodd" clip-rule="evenodd" d="M18 8C16.6739 8 15.4022 8.52678 14.4645 9.46447C13.5268 10.4021 13 11.6739 13 13C13 14.3261 13.5268 15.5979 14.4645 16.5355C15.4022 17.4732 16.6739 18 18 18C19.3261 18 20.5979 17.4732 21.5355 16.5355C22.4732 15.5979 23 14.3261 23 13C23 11.6739 22.4732 10.4021 21.5355 9.46447C20.5979 8.52678 19.3261 8 18 8ZM15 13C15 12.2044 15.3161 11.4413 15.8787 10.8787C16.4413 10.3161 17.2044 10 18 10C18.7957 10 19.5587 10.3161 20.1213 10.8787C20.6839 11.4413 21 12.2044 21 13C21 13.7956 20.6839 14.5587 20.1213 15.1213C19.5587 15.6839 18.7957 16 18 16C17.2044 16 16.4413 15.6839 15.8787 15.1213C15.3161 14.5587 15 13.7956 15 13ZM18 19C13.769 19 10.827 20.699 9.60701 23.689C9.13101 24.858 9.45901 25.991 10.167 26.778C10.855 27.54 11.903 28 13 28H23C24.098 28 25.146 27.54 25.832 26.778C26.541 25.991 26.869 24.858 26.392 23.688C25.173 20.699 22.232 19 18 19ZM11.46 24.444C12.282 22.424 14.32 21 18 21C21.68 21 23.717 22.423 24.54 24.444C24.69 24.809 24.613 25.144 24.346 25.439C24.057 25.76 23.559 26 23 26H13C12.44 26 11.943 25.76 11.654 25.44C11.387 25.143 11.312 24.809 11.46 24.444Z" fill="white"/>
</svg>
