<svg width="22" height="25" viewBox="0 0 22 25" fill="none" xmlns="http://www.w3.org/2000/svg">
<path fill-rule="evenodd" clip-rule="evenodd" d="M11 4.54514C13.4475 4.54514 13.7371 4.55431 14.7033 4.59831C15.5971 4.63864 16.0829 4.78806 16.4056 4.91364C16.8336 5.08048 17.1389 5.27848 17.4597 5.59931C17.7806 5.92014 17.9795 6.22539 18.1454 6.65348C18.271 6.97614 18.4204 7.46198 18.4607 8.35573C18.5047 9.32189 18.5148 9.61156 18.5148 12.0591C18.5148 14.5066 18.5056 14.7971 18.4607 15.7633C18.4204 16.6571 18.271 17.1429 18.1454 17.4656C17.9795 17.8936 17.7806 18.1989 17.4597 18.5197C17.1389 18.8406 16.8336 19.0395 16.4056 19.2054C16.0829 19.331 15.5971 19.4804 14.7033 19.5207C13.7371 19.5647 13.4475 19.5748 11 19.5748C8.55248 19.5748 8.2619 19.5656 7.29573 19.5207C6.40198 19.4804 5.91615 19.331 5.59348 19.2054C5.19532 19.0584 4.83513 18.8241 4.53931 18.5197C4.23473 18.2241 4.00041 17.8638 3.85365 17.4656C3.72806 17.1429 3.57865 16.6571 3.53831 15.7633C3.49431 14.7971 3.48515 14.5075 3.48515 12.06C3.48515 9.61248 3.49431 9.32189 3.53831 8.35573C3.57956 7.46198 3.72806 6.97614 3.85365 6.65348C4.02048 6.22539 4.21848 5.92014 4.53931 5.59931C4.86015 5.27848 5.1654 5.07956 5.59348 4.91364C5.91615 4.78806 6.40198 4.63864 7.29573 4.59831C8.2619 4.55431 8.55156 4.54514 10.9991 4.54514H11ZM11 2.89331C8.51031 2.89331 8.19773 2.90431 7.22056 2.94831C6.24431 2.99323 5.57881 3.14814 4.9949 3.37456C4.38377 3.60529 3.83037 3.96661 3.37331 4.43331C2.90686 4.89074 2.54585 5.44446 2.31548 6.05581C2.08906 6.63973 1.93415 7.30523 1.88923 8.28148C1.84431 9.25773 1.83331 9.57031 1.83331 12.06C1.83331 14.5487 1.84431 14.8613 1.88831 15.8394C1.93323 16.8147 2.08815 17.4802 2.31456 18.0641C2.5449 18.6755 2.90592 19.2292 3.3724 19.6866C3.82986 20.1531 4.38357 20.5141 4.9949 20.7445C5.57881 20.9718 6.24523 21.1267 7.22056 21.1707C8.19865 21.2166 8.51031 21.2257 11 21.2257C13.4896 21.2257 13.8013 21.2166 14.7794 21.1707C15.7547 21.1267 16.4211 20.9718 17.0041 20.7445C17.6158 20.5145 18.1698 20.1538 18.6276 19.6876C19.094 19.2298 19.455 18.6758 19.6854 18.0641C19.9118 17.4811 20.0667 16.8147 20.1116 15.8394C20.1556 14.8613 20.1666 14.5487 20.1666 12.06C20.1666 9.57031 20.1556 9.25773 20.1116 8.28056C20.0667 7.30431 19.9118 6.63789 19.6854 6.05489C19.455 5.44354 19.094 4.88982 18.6276 4.43239C18.1701 3.96598 17.6164 3.60498 17.0051 3.37456C16.4211 3.14814 15.7547 2.99323 14.7794 2.94831C13.8013 2.90431 13.4887 2.89331 11 2.89331ZM11 7.35289C10.3818 7.35289 9.76975 7.47465 9.19866 7.7112C8.62757 7.94775 8.10866 8.29447 7.67157 8.73157C7.23448 9.16866 6.88775 9.68757 6.6512 10.2587C6.41465 10.8297 6.2929 11.4418 6.2929 12.06C6.2929 12.6781 6.41465 13.2902 6.6512 13.8613C6.88775 14.4324 7.23448 14.9513 7.67157 15.3884C8.10866 15.8255 8.62757 16.1722 9.19866 16.4088C9.76975 16.6453 10.3818 16.7671 11 16.7671C12.2484 16.7671 13.4456 16.2711 14.3284 15.3884C15.2111 14.5056 15.7071 13.3084 15.7071 12.06C15.7071 10.8116 15.2111 9.61432 14.3284 8.73157C13.4456 7.84882 12.2484 7.35289 11 7.35289ZM11 15.1152C10.1897 15.1152 9.41256 14.7933 8.83959 14.2204C8.26662 13.6474 7.94473 12.8703 7.94473 12.06C7.94473 11.2497 8.26662 10.4726 8.83959 9.89959C9.41256 9.32662 10.1897 9.00473 11 9.00473C11.8103 9.00473 12.5874 9.32662 13.1604 9.89959C13.7333 10.4726 14.0552 11.2497 14.0552 12.06C14.0552 12.8703 13.7333 13.6474 13.1604 14.2204C12.5874 14.7933 11.8103 15.1152 11 15.1152ZM16.9931 7.16681C16.9931 7.31126 16.9647 7.4543 16.9094 7.58776C16.8541 7.72122 16.7731 7.84248 16.671 7.94463C16.5688 8.04677 16.4476 8.1278 16.3141 8.18308C16.1806 8.23836 16.0376 8.26681 15.8931 8.26681C15.7487 8.26681 15.6057 8.23836 15.4722 8.18308C15.3387 8.1278 15.2175 8.04677 15.1153 7.94463C15.0132 7.84248 14.9322 7.72122 14.8769 7.58776C14.8216 7.4543 14.7931 7.31126 14.7931 7.16681C14.7931 6.87507 14.909 6.59528 15.1153 6.38899C15.3216 6.1827 15.6014 6.06681 15.8931 6.06681C16.1849 6.06681 16.4647 6.1827 16.671 6.38899C16.8773 6.59528 16.9931 6.87507 16.9931 7.16681Z" fill="#2B2B2B"/>
</svg>
