<svg width="22" height="25" viewBox="0 0 22 25" fill="none" xmlns="http://www.w3.org/2000/svg">
<path fill-rule="evenodd" clip-rule="evenodd" d="M3.87015 6.81389C5.18465 6.81389 5.9849 5.93664 5.9849 4.85406C5.95831 3.74398 5.18465 2.89331 3.9224 2.89331C2.65831 2.89331 1.83331 3.74581 1.83331 4.85406C1.83331 5.93573 2.63265 6.81389 3.87015 6.81389ZM1.93598 8.35939V20.9691H5.85565V8.35939H1.93598ZM8.09781 8.35939C8.16428 9.69916 8.19882 11.0403 8.2014 12.3817V20.9691H12.122V13.6962C12.122 13.336 12.1467 12.9748 12.2503 12.7172C12.5345 11.9958 13.1789 11.2478 14.2615 11.2478C15.6796 11.2478 16.2479 12.357 16.2479 13.9813V20.9691H20.1666V13.5166C20.1666 9.80406 18.2334 8.07614 15.6548 8.07614C13.5401 8.07614 12.276 9.28798 11.7608 10.113H11.6829L11.5014 8.35939H8.09781Z" fill="#2B2B2B"/>
</svg>
