<svg width="22" height="25" viewBox="0 0 22 25" fill="none" xmlns="http://www.w3.org/2000/svg">
<path d="M11 2.89331C5.9409 2.89331 1.83331 7.00089 1.83331 12.06C1.83255 13.9037 2.3878 15.7049 3.42656 17.2282C4.46531 18.7515 5.93928 19.9261 7.65598 20.5987C7.57073 19.8681 7.5029 18.7654 7.6899 17.9679C7.85948 17.2547 8.75965 13.4185 8.75965 13.4185C8.75965 13.4185 8.4874 12.8749 8.4874 12.06C8.4874 10.7867 9.23448 9.83614 10.1511 9.83614C10.9321 9.83614 11.3061 10.4301 11.3061 11.1268C11.3061 11.9069 10.813 13.0958 10.5416 14.1821C10.3216 15.0987 11 15.8458 11.9001 15.8458C13.5291 15.8458 14.7858 14.1316 14.7858 11.653C14.7858 9.46214 13.2064 7.91756 10.9486 7.91756C8.33523 7.91756 6.80715 9.87006 6.80715 11.8904C6.80715 12.6714 7.1124 13.5202 7.48548 13.9786C7.51579 14.0127 7.53778 14.0534 7.54971 14.0974C7.56164 14.1415 7.56318 14.1877 7.55423 14.2325C7.5029 14.5212 7.35073 15.1326 7.3159 15.2683C7.26548 15.4379 7.18023 15.4718 7.01065 15.3875C5.87398 14.8613 5.1434 13.1801 5.1434 11.84C5.1434 8.95339 7.24806 6.28864 11.2035 6.28864C14.3779 6.28864 16.8566 8.54639 16.8566 11.5851C16.8566 14.7421 14.8701 17.2886 12.1036 17.2886C11.1696 17.2886 10.3042 16.8129 9.99806 16.2363C9.99806 16.2363 9.53973 17.9844 9.42056 18.4088C9.21798 19.2063 8.65698 20.2082 8.2839 20.8196C9.16308 21.0936 10.0791 21.2308 11 21.2266C16.0581 21.2266 20.1666 17.1181 20.1666 12.06C20.1666 7.00089 16.0581 2.89331 11 2.89331Z" fill="#2B2B2B"/>
</svg>
