<svg width="20" height="14" viewBox="0 0 20 14" fill="none" xmlns="http://www.w3.org/2000/svg">
<path fill-rule="evenodd" clip-rule="evenodd" d="M17.1638 1.02648C17.953 1.23731 18.5736 1.85789 18.7844 2.64714C19.1667 4.07714 19.1667 7.05998 19.1667 7.05998C19.1667 7.05998 19.1667 10.0437 18.7835 11.4728C18.679 11.8612 18.4743 12.2154 18.1898 12.4998C17.9054 12.7842 17.5513 12.989 17.1628 13.0935C15.7328 13.4776 10 13.4776 10 13.4776C10 13.4776 4.26626 13.4776 2.83718 13.0935C2.44876 12.989 2.09461 12.7842 1.81018 12.4998C1.52576 12.2154 1.32104 11.8612 1.21651 11.4728C0.833343 10.0437 0.833344 7.05998 0.833344 7.05998C0.833344 7.05998 0.833343 4.07623 1.21651 2.64714C1.32104 2.25872 1.52576 1.90458 1.81018 1.62015C2.09461 1.33572 2.44876 1.131 2.83718 1.02648C4.26718 0.643311 10 0.643311 10 0.643311C10 0.643311 15.7338 0.643311 17.1638 1.02648ZM8.16668 4.31089V9.80998L12.9306 7.05998L8.16668 4.30998V4.31089Z" fill="#2B2B2B"/>
</svg>
