<svg width="25" height="25" viewBox="0 0 49 48" fill="none" xmlns="http://www.w3.org/2000/svg">
<rect x="0.5" width="48" height="48" rx="24" fill="#2B2B2B"/>
<path fill-rule="evenodd" clip-rule="evenodd" d="M29.118 30.312C27.3208 31.7478 25.0421 32.4409 22.7499 32.2491C20.4576 32.0572 18.3258 30.995 16.7923 29.2805C15.2587 27.566 14.4399 25.3294 14.5039 23.03C14.5679 20.7306 15.5099 18.543 17.1365 16.9165C18.763 15.2899 20.9506 14.3479 23.25 14.2839C25.5494 14.2199 27.786 15.0387 29.5005 16.5723C31.215 18.1058 32.2772 20.2376 32.4691 22.5299C32.6609 24.8221 31.9678 27.1008 30.532 28.898L34.207 32.573C34.3892 32.7616 34.49 33.0142 34.4877 33.2764C34.4854 33.5386 34.3802 33.7894 34.1948 33.9748C34.0094 34.1602 33.7586 34.2654 33.4964 34.2677C33.2342 34.27 32.9816 34.1692 32.793 33.987L29.118 30.312ZM30.5 23.28C30.5 24.1993 30.3189 25.1095 29.9672 25.9588C29.6154 26.8081 29.0998 27.5797 28.4497 28.2297C27.7997 28.8798 27.0281 29.3954 26.1788 29.7472C25.3295 30.0989 24.4193 30.28 23.5 30.28C22.5807 30.28 21.6705 30.0989 20.8212 29.7472C19.9719 29.3954 19.2003 28.8798 18.5503 28.2297C17.9002 27.5797 17.3846 26.8081 17.0328 25.9588C16.6811 25.1095 16.5 24.1993 16.5 23.28C16.5 21.4235 17.2375 19.643 18.5503 18.3302C19.863 17.0175 21.6435 16.28 23.5 16.28C25.3565 16.28 27.137 17.0175 28.4497 18.3302C29.7625 19.643 30.5 21.4235 30.5 23.28Z" fill="white"/>
</svg>
